Coordinates
version=1
nRows=72
nColumns=19
inDegrees=yes

Units are S.I. units (second, meters, Newtons, ...)
Angles are in degrees.

endheader
time	1_Force_X	1_Force_Y	1_Force_Z	1_Moment_X	1_Moment_Y	1_Moment_Z	1_COP_X	1_COP_Y	1_COP_Z	2_Force_X	2_Force_Y	2_Force_Z	2_Moment_X	2_Moment_Y	2_Moment_Z	2_COP_X	2_COP_Y	2_COP_Z
0.5500	34.808	-1.075	9.165	-0.194	0.000	0.425	-18.570	11.286	0.653	-0.201	0.000	0.207	0.00000	34.81673	0.00000	0.00000	16.78427	0.00000
0.5525	35.031	-1.422	9.386	-0.205	0.000	0.433	-18.610	11.285	0.261	-0.200	0.000	0.209	0.00000	25.84945	0.00000	0.00000	16.75630	0.00000
0.5550	34.901	-1.074	9.606	-0.196	0.000	0.439	-18.610	11.972	0.218	-0.201	0.000	0.207	0.00000	31.68540	0.00000	0.00000	15.97025	0.00000
0.5575	35.033	-1.593	9.475	-0.208	0.000	0.449	-18.350	11.283	0.349	-0.200	0.000	0.208	0.00000	20.73737	0.00000	0.00000	16.46152	0.00000
0.5600	35.208	-1.947	9.473	-0.208	0.000	0.421	-17.825	10.601	0.483	-0.200	0.000	0.210	0.00000	22.28043	0.00000	0.00000	17.26040	0.00000
0.5625	35.469	-2.471	9.473	-0.199	0.000	0.423	-17.870	10.771	0.569	-0.199	0.000	0.209	0.00000	19.18386	0.00000	0.00000	16.99995	0.00000
0.5650	35.298	-2.295	9.693	-0.213	0.000	0.422	-18.175	10.770	0.391	-0.200	0.000	0.207	0.00000	19.77187	0.00000	0.00000	16.81245	0.00000
0.5675	34.991	-1.765	9.519	-0.221	0.000	0.443	-18.129	11.627	0.089	-0.201	0.000	0.208	0.00000	19.62615	0.00000	0.00000	15.93802	0.00000
0.5700	34.945	-1.245	9.607	-0.205	0.000	0.435	-18.129	12.486	0.091	-0.202	0.000	0.207	0.00000	28.38515	0.00000	0.00000	15.19988	0.00000
0.5725	35.168	-1.936	9.785	-0.221	0.000	0.449	-18.260	10.938	-0.044	-0.199	0.000	0.210	0.00000	17.75148	0.00000	0.00000	16.67398	0.00000
0.5750	34.815	-1.761	9.786	-0.218	0.000	0.440	-17.912	10.938	0.133	-0.200	0.000	0.210	0.00000	20.58002	0.00000	0.00000	16.55423	0.00000
0.5775	35.082	-1.759	9.963	-0.221	0.000	0.459	-17.955	11.624	0.003	-0.200	0.000	0.209	0.00000	17.42057	0.00000	0.00000	15.82827	0.00000
0.5800	35.516	-2.469	9.782	-0.202	0.000	0.424	-17.652	10.941	0.485	-0.200	0.000	0.210	0.00000	19.04226	0.00000	0.00000	16.70426	0.00000
0.5825	35.391	-3.506	10.182	-0.225	0.000	0.435	-17.740	10.081	0.569	-0.199	0.000	0.210	0.00000	13.63195	0.00000	0.00000	17.63763	0.00000
0.5850	35.471	-2.466	9.915	-0.205	0.000	0.420	-17.609	9.737	0.570	-0.199	0.000	0.212	0.00000	19.61858	0.00000	0.00000	18.13318	0.00000
0.5875	34.815	-1.583	10.185	-0.209	0.000	0.445	-17.910	11.280	-0.129	-0.200	0.000	0.209	0.00000	21.98304	0.00000	0.00000	15.99268	0.00000
0.5900	35.213	-0.893	10.358	-0.197	0.000	0.442	-17.604	11.621	-0.169	-0.202	0.000	0.209	0.00000	37.22617	0.00000	0.00000	15.52408	0.00000
0.5925	35.298	-1.760	9.963	-0.213	0.000	0.443	-17.649	11.451	-0.082	-0.200	0.000	0.210	0.00000	20.58634	0.00000	0.00000	15.84356	0.00000
0.5950	34.906	-1.584	10.449	-0.213	0.000	0.436	-17.475	11.623	0.093	-0.201	0.000	0.208	0.00000	23.65940	0.00000	0.00000	15.57094	0.00000
0.5975	35.083	-2.799	10.275	-0.224	0.000	0.459	-17.692	11.449	-0.170	-0.202	0.000	0.209	0.00000	12.82968	0.00000	0.00000	15.68405	0.00000
0.6000	35.343	-2.632	10.007	-0.217	0.000	0.442	-17.562	10.938	0.222	-0.201	0.000	0.209	0.00000	15.65976	0.00000	0.00000	16.34692	0.00000
0.6025	35.303	-3.499	10.229	-0.227	0.000	0.450	-17.344	10.594	0.181	-0.201	0.000	0.211	0.00000	12.05809	0.00000	0.00000	16.77858	0.00000
0.6050	35.125	-2.454	10.318	-0.212	0.000	0.451	-17.428	11.448	-0.299	-0.202	0.000	0.210	0.00000	15.40539	0.00000	0.00000	15.52778	0.00000
0.6075	35.298	-2.983	10.271	-0.212	0.000	0.418	-17.607	9.906	0.176	-0.200	0.000	0.210	0.00000	17.39417	0.00000	0.00000	17.41006	0.00000
0.6100	35.648	-1.598	10.089	-0.198	0.000	0.410	-17.082	10.076	0.092	-0.200	0.000	0.211	0.00000	29.18717	0.00000	0.00000	16.90691	0.00000
0.6125	35.295	-1.767	9.916	-0.205	0.000	0.414	-17.430	9.734	0.002	-0.199	0.000	0.211	0.00000	25.76516	0.00000	0.00000	17.50236	0.00000
0.6150	35.213	-2.105	10.361	-0.219	0.000	0.441	-17.253	11.791	-0.474	-0.202	0.000	0.208	0.00000	18.38618	0.00000	0.00000	14.88935	0.00000
0.6175	35.435	-3.500	10.361	-0.229	0.000	0.438	-17.212	9.731	-0.082	-0.200	0.000	0.213	0.00000	13.40555	0.00000	0.00000	17.42489	0.00000
0.6200	35.520	-2.462	10.358	-0.208	0.000	0.430	-17.125	10.246	0.006	-0.202	0.000	0.211	0.00000	18.47486	0.00000	0.00000	16.66963	0.00000
0.6225	35.300	-1.585	10.448	-0.206	0.000	0.436	-17.735	11.791	-0.300	-0.202	0.000	0.210	0.00000	24.22501	0.00000	0.00000	15.43610	0.00000
0.6250	35.438	-2.450	10.581	-0.241	0.000	0.443	-17.431	11.617	-0.212	-0.202	0.000	0.210	0.00000	15.60636	0.00000	0.00000	15.37022	0.00000
0.6275	35.345	-1.237	10.668	-0.200	0.000	0.433	-17.171	10.414	-0.083	-0.199	0.000	0.211	0.00000	30.57170	0.00000	0.00000	16.33288	0.00000
0.6300	35.213	-1.753	10.361	-0.226	0.000	0.440	-17.167	10.932	-0.344	-0.201	0.000	0.209	0.00000	20.75011	0.00000	0.00000	15.63441	0.00000
0.6325	35.305	-2.446	10.805	-0.226	0.000	0.459	-17.389	10.585	-0.039	-0.201	0.000	0.211	0.00000	14.22283	0.00000	0.00000	16.40964	0.00000
0.6350	35.695	-1.931	10.713	-0.207	0.000	0.431	-16.907	10.594	0.226	-0.204	0.000	0.210	0.00000	22.13484	0.00000	0.00000	16.35219	0.00000
0.6375	35.346	-2.281	10.668	-0.220	0.000	0.422	-17.386	9.728	-0.259	-0.200	0.000	0.213	0.00000	20.15777	0.00000	0.00000	17.30192	0.00000
0.6400	35.920	-3.150	10.889	-0.224	0.000	0.432	-17.129	11.107	0.445	-0.202	0.000	0.210	0.00000	15.38600	0.00000	0.00000	16.15039	0.00000
0.6425	35.567	-2.440	10.894	-0.233	0.000	0.450	-16.866	10.243	0.094	-0.199	0.000	0.211	0.00000	15.45418	0.00000	0.00000	16.52164	0.00000
0.6450	35.789	-2.097	11.024	-0.232	0.000	0.442	-17.260	10.927	0.006	-0.201	0.000	0.212	0.00000	18.34791	0.00000	0.00000	16.02617	0.00000
0.6475	35.349	-2.443	11.159	-0.224	0.000	0.449	-17.042	11.275	0.358	-0.203	0.000	0.210	0.00000	15.90956	0.00000	0.00000	15.84087	0.00000
0.6500	35.651	-1.402	10.980	-0.206	0.000	0.437	-17.214	11.099	-0.036	-0.202	0.000	0.212	0.00000	27.14309	0.00000	0.00000	15.92302	0.00000
0.6525	35.701	-1.747	11.334	-0.217	0.000	0.451	-16.691	11.617	0.186	-0.203	0.000	0.210	0.00000	20.27033	0.00000	0.00000	15.24122	0.00000
0.6550	35.786	-3.493	11.201	-0.223	0.000	0.424	-17.522	9.558	0.398	-0.200	0.000	0.216	0.00000	15.53456	0.00000	0.00000	18.51971	0.00000
0.6575	35.700	-3.483	11.248	-0.238	0.000	0.433	-16.825	10.590	0.576	-0.202	0.000	0.211	0.00000	14.22937	0.00000	0.00000	16.51587	0.00000
0.6600	35.787	-3.143	11.070	-0.218	0.000	0.449	-16.912	10.245	0.619	-0.203	0.000	0.212	0.00000	13.86150	0.00000	0.00000	17.00454	0.00000
0.6625	35.742	-1.920	11.158	-0.217	0.000	0.449	-17.215	11.273	0.007	-0.201	0.000	0.211	0.00000	19.23233	0.00000	0.00000	15.67535	0.00000
0.6650	35.261	-2.092	11.291	-0.226	0.000	0.441	-16.910	10.585	0.139	-0.201	0.000	0.212	0.00000	18.72399	0.00000	0.00000	16.32854	0.00000
0.6675	35.831	-1.230	11.154	-0.213	0.000	0.431	-17.127	10.239	-0.169	-0.200	0.000	0.213	0.00000	31.25582	0.00000	0.00000	16.63025	0.00000
0.6700	35.745	-2.093	11.114	-0.228	0.000	0.458	-16.645	10.755	-0.209	-0.203	0.000	0.211	0.00000	16.25788	0.00000	0.00000	15.66302	0.00000
0.6725	35.611	-1.925	11.112	-0.214	0.000	0.441	-16.993	10.582	-0.429	-0.201	0.000	0.212	0.00000	20.50545	0.00000	0.00000	15.95598	0.00000
0.6750	35.742	-2.449	11.112	-0.216	0.000	0.426	-16.734	10.073	0.140	-0.202	0.000	0.213	0.00000	19.28649	0.00000	0.00000	16.87911	0.00000
0.6775	35.964	-3.839	11.114	-0.223	0.000	0.448	-16.471	9.558	0.053	-0.201	0.000	0.213	0.00000	12.36321	0.00000	0.00000	17.23325	0.00000
0.6800	35.653	-3.144	10.805	-0.216	0.000	0.448	-16.776	9.902	-0.038	-0.200	0.000	0.211	0.00000	13.90041	0.00000	0.00000	16.70050	0.00000
0.6825	35.614	-3.142	11.422	-0.226	0.000	0.437	-16.690	10.074	0.139	-0.201	0.000	0.212	0.00000	14.97121	0.00000	0.00000	16.74858	0.00000
0.6850	35.613	-2.969	11.113	-0.227	0.000	0.436	-16.731	9.214	-0.124	-0.201	0.000	0.213	0.00000	15.41143	0.00000	0.00000	17.68996	0.00000
0.6875	35.921	-3.666	10.980	-0.233	0.000	0.442	-16.687	9.729	-0.256	-0.202	0.000	0.211	0.00000	12.91724	0.00000	0.00000	16.65216	0.00000
0.6900	35.524	-2.443	11.071	-0.223	0.000	0.453	-16.948	11.440	-0.601	-0.203	0.000	0.212	0.00000	15.40759	0.00000	0.00000	15.10360	0.00000
0.6925	35.481	-2.098	11.157	-0.221	0.000	0.440	-16.861	10.757	-0.385	-0.202	0.000	0.211	0.00000	19.01486	0.00000	0.00000	15.74928	0.00000
0.6950	35.480	-1.920	11.025	-0.229	0.000	0.446	-16.775	10.925	-0.472	-0.201	0.000	0.211	0.00000	18.95874	0.00000	0.00000	15.37378	0.00000
0.6975	35.874	-2.278	10.890	-0.213	0.000	0.443	-16.512	10.073	-0.209	-0.202	0.000	0.212	0.00000	17.91063	0.00000	0.00000	16.43224	0.00000
0.7000	35.606	-2.622	10.893	-0.208	0.000	0.432	-16.515	9.897	-0.167	-0.201	0.000	0.212	0.00000	17.96441	0.00000	0.00000	16.44473	0.00000
0.7025	35.610	-2.969	10.893	-0.224	0.000	0.442	-16.471	10.244	-0.034	-0.202	0.000	0.211	0.00000	14.80805	0.00000	0.00000	16.24835	0.00000
0.7050	35.741	-2.628	10.934	-0.209	0.000	0.432	-16.515	9.210	-0.079	-0.201	0.000	0.214	0.00000	17.83020	0.00000	0.00000	17.55476	0.00000
0.7075	35.654	-2.625	10.890	-0.223	0.000	0.427	-16.469	9.728	-0.210	-0.201	0.000	0.212	0.00000	17.90573	0.00000	0.00000	16.73302	0.00000
0.7100	35.432	-1.405	10.671	-0.207	0.000	0.444	-16.730	10.925	-0.602	-0.203	0.000	0.212	0.00000	25.29648	0.00000	0.00000	15.33295	0.00000
0.7125	35.568	-2.970	10.759	-0.235	0.000	0.435	-16.513	9.384	-0.298	-0.200	0.000	0.214	0.00000	15.20061	0.00000	0.00000	17.20871	0.00000
0.7150	35.698	-3.320	10.804	-0.220	0.000	0.443	-16.424	10.244	-0.296	-0.203	0.000	0.211	0.00000	13.90254	0.00000	0.00000	16.04071	0.00000
0.7175	35.610	-2.625	10.935	-0.218	0.000	0.432	-16.642	9.898	-0.430	-0.203	0.000	0.211	0.00000	17.46822	0.00000	0.00000	16.26800	0.00000
0.7200	35.257	-1.927	10.847	-0.216	0.000	0.426	-16.771	11.098	-0.820	-0.202	0.000	0.211	0.00000	22.34045	0.00000	0.00000	15.07540	0.00000
0.7225	35.259	-1.054	10.847	-0.218	0.000	0.438	-16.422	10.752	-0.907	-0.203	0.000	0.211	0.00000	32.35767	0.00000	0.00000	14.98209	0.00000
0.7250	35.300	-1.578	10.715	-0.208	0.000	0.440	-16.641	10.925	-0.734	-0.202	0.000	0.210	0.00000	23.67824	0.00000	0.00000	15.01139	0.00000
0.7275	35.259	-1.927	10.538	-0.228	0.000	0.440	-16.421	10.756	-0.819	-0.202	0.000	0.211	0.00000	19.36192	0.00000	0.00000	15.15809	0.00000
